ply
format ascii 1.0
comment Created by Blender 2.83.5 - www.blender.org, source file: ''
element vertex 190
property float x
property float y
property float z
property float nx
property float ny
property float nz
property float s
property float t
element face 64
property list uchar uint vertex_indices
end_header
-0.000750 -0.121376 0.023322 -0.999910 0.003710 -0.012855 0.028970 0.669273
-0.000893 -0.118463 0.035286 -0.999910 0.003710 -0.012855 0.014642 0.622298
0.000011 0.001868 -0.000359 -0.999910 0.003710 -0.012855 0.500001 0.499999
-0.000893 -0.118463 0.035286 -0.999911 0.003719 -0.012827 0.014642 0.622298
-0.001027 -0.114390 0.046898 -0.999911 0.003719 -0.012827 0.005006 0.574170
0.000011 0.001868 -0.000359 -0.999911 0.003719 -0.012827 0.500001 0.499999
-0.001027 -0.114390 0.046898 -0.999910 0.003704 -0.012863 0.005006 0.574170
-0.001152 -0.109202 0.058066 -0.999910 0.003704 -0.012863 0.000103 0.525300
0.000011 0.001868 -0.000359 -0.999910 0.003704 -0.012863 0.500001 0.499999
-0.001152 -0.109202 0.058066 -0.999911 0.003713 -0.012847 0.000103 0.525300
-0.001265 -0.102922 0.068667 -0.999911 0.003713 -0.012847 0.000100 0.476157
0.000011 0.001868 -0.000359 -0.999911 0.003713 -0.012847 0.500001 0.499999
-0.001265 -0.102922 0.068667 -0.999911 0.003711 -0.012850 0.000100 0.476157
-0.001366 -0.095666 0.078621 -0.999911 0.003711 -0.012850 0.004757 0.427254
0.000011 0.001868 -0.000359 -0.999911 0.003711 -0.012850 0.500001 0.499999
-0.001366 -0.095666 0.078621 -0.999911 0.003725 -0.012833 0.004757 0.427254
-0.001453 -0.087436 0.087798 -0.999911 0.003725 -0.012833 0.014339 0.379030
0.000011 0.001868 -0.000359 -0.999911 0.003725 -0.012833 0.500001 0.499999
-0.001453 -0.087436 0.087798 -0.999911 0.003742 -0.012815 0.014339 0.379030
-0.001526 -0.078372 0.096127 -0.999911 0.003742 -0.012815 0.028507 0.332025
0.000011 0.001868 -0.000359 -0.999911 0.003742 -0.012815 0.500001 0.499999
-0.001526 -0.078372 0.096127 -0.999910 0.003676 -0.012870 0.028507 0.332025
-0.001585 -0.068537 0.103541 -0.999910 0.003676 -0.012870 0.047180 0.286594
0.000011 0.001868 -0.000359 -0.999910 0.003676 -0.012870 0.500001 0.499999
-0.001585 -0.068537 0.103541 -0.999911 0.003710 -0.012847 0.047180 0.286594
-0.001628 -0.058007 0.109925 -0.999911 0.003710 -0.012847 0.070332 0.243280
0.000011 0.001868 -0.000359 -0.999911 0.003710 -0.012847 0.500001 0.499999
-0.001628 -0.058007 0.109925 -0.999911 0.003746 -0.012828 0.070332 0.243280
-0.001655 -0.046912 0.115256 -0.999911 0.003746 -0.012828 0.097564 0.202432
0.000011 0.001868 -0.000359 -0.999911 0.003746 -0.012828 0.500001 0.499999
-0.001655 -0.046912 0.115256 -0.999911 0.003680 -0.012855 0.097564 0.202432
-0.001666 -0.035336 0.119498 -0.999911 0.003680 -0.012855 0.128659 0.164345
0.000011 0.001868 -0.000359 -0.999911 0.003680 -0.012855 0.500001 0.499999
-0.001666 -0.035336 0.119498 -0.999911 0.003754 -0.012832 0.128659 0.164345
-0.001661 -0.023403 0.122546 -0.999911 0.003754 -0.012832 0.163410 0.129626
0.000011 0.001868 -0.000359 -0.999911 0.003754 -0.012832 0.500001 0.499999
-0.001661 -0.023403 0.122546 -0.999911 0.003699 -0.012844 0.163410 0.129626
-0.001640 -0.011228 0.124450 -0.999911 0.003699 -0.012844 0.201313 0.098346
0.000011 0.001868 -0.000359 -0.999911 0.003699 -0.012844 0.500001 0.499999
-0.001640 -0.011228 0.124450 -0.999911 0.003697 -0.012844 0.201313 0.098346
-0.001603 0.001069 0.125128 -0.999911 0.003697 -0.012844 0.242130 0.071022
0.000011 0.001868 -0.000359 -0.999911 0.003697 -0.012844 0.500001 0.499999
-0.001603 0.001069 0.125128 -0.999911 0.003705 -0.012844 0.242130 0.071022
-0.001551 0.013364 0.124606 -0.999911 0.003705 -0.012844 0.285379 0.047819
0.000011 0.001868 -0.000359 -0.999911 0.003705 -0.012844 0.500001 0.499999
-0.001551 0.013364 0.124606 -0.999910 0.003760 -0.012849 0.285379 0.047819
-0.001483 0.025556 0.122876 -0.999910 0.003760 -0.012849 0.330731 0.028971
0.000011 0.001868 -0.000359 -0.999910 0.003760 -0.012849 0.500001 0.499999
-0.001483 0.025556 0.122876 -0.999911 0.003650 -0.012828 0.330731 0.028971
-0.001402 0.037520 0.119964 -0.999911 0.003650 -0.012828 0.377701 0.014643
0.000011 0.001868 -0.000359 -0.999911 0.003650 -0.012828 0.500001 0.499999
-0.001402 0.037520 0.119964 -0.999910 0.003767 -0.012863 0.377701 0.014643
-0.001306 0.049133 0.115892 -0.999910 0.003767 -0.012863 0.425830 0.005008
0.000011 0.001868 -0.000359 -0.999910 0.003767 -0.012863 0.500001 0.499999
-0.001306 0.049133 0.115892 -0.999911 0.003695 -0.012833 0.425830 0.005008
-0.001198 0.060302 0.110705 -0.999911 0.003695 -0.012833 0.474701 0.000103
0.000011 0.001868 -0.000359 -0.999911 0.003695 -0.012833 0.500001 0.499999
-0.001198 0.060302 0.110705 -0.999910 0.003734 -0.012854 0.474701 0.000103
-0.001078 0.070903 0.104426 -0.999910 0.003734 -0.012854 0.523843 0.000100
0.000011 0.001868 -0.000359 -0.999910 0.003734 -0.012854 0.500001 0.499999
-0.001078 0.070903 0.104426 -0.999910 0.003729 -0.012850 0.523843 0.000100
-0.000947 0.080857 0.097171 -0.999910 0.003729 -0.012850 0.572747 0.004758
0.000011 0.001868 -0.000359 -0.999910 0.003729 -0.012850 0.500001 0.499999
-0.000947 0.080857 0.097171 -0.999911 0.003697 -0.012824 0.572747 0.004758
-0.000808 0.090036 0.088941 -0.999911 0.003697 -0.012824 0.620974 0.014341
0.000011 0.001868 -0.000359 -0.999911 0.003697 -0.012824 0.500001 0.499999
-0.000808 0.090036 0.088941 -0.999910 0.003728 -0.012855 0.620974 0.014341
-0.000660 0.098364 0.079878 -0.999910 0.003728 -0.012855 0.667976 0.028510
0.000011 0.001868 -0.000359 -0.999910 0.003728 -0.012855 0.500001 0.499999
-0.000660 0.098364 0.079878 -0.999911 0.003715 -0.012840 0.667976 0.028510
-0.000507 0.105778 0.070046 -0.999911 0.003715 -0.012840 0.713405 0.047178
0.000011 0.001868 -0.000359 -0.999911 0.003715 -0.012840 0.500001 0.499999
-0.000507 0.105778 0.070046 -0.999911 0.003712 -0.012835 0.713405 0.047178
-0.000348 0.112163 0.059516 -0.999911 0.003712 -0.012835 0.756723 0.070333
0.000011 0.001868 -0.000359 -0.999911 0.003712 -0.012835 0.500001 0.499999
-0.000348 0.112163 0.059516 -0.999911 0.003708 -0.012828 0.756723 0.070333
-0.000186 0.117493 0.048422 -0.999911 0.003708 -0.012828 0.797567 0.097565
0.000011 0.001868 -0.000359 -0.999911 0.003708 -0.012828 0.500001 0.499999
-0.000186 0.117493 0.048422 -0.999910 0.003726 -0.012870 0.797567 0.097565
-0.000021 0.121734 0.036847 -0.999910 0.003726 -0.012870 0.835654 0.128662
0.000011 0.001868 -0.000359 -0.999910 0.003726 -0.012870 0.500001 0.499999
-0.000021 0.121734 0.036847 -0.999911 0.003711 -0.012821 0.835654 0.128662
0.000143 0.124783 0.024914 -0.999911 0.003711 -0.012821 0.870376 0.163412
0.000011 0.001868 -0.000359 -0.999911 0.003711 -0.012821 0.500001 0.499999
0.000143 0.124783 0.024914 -0.999911 0.003708 -0.012809 0.870376 0.163412
0.000306 0.126686 0.012742 -0.999911 0.003708 -0.012809 0.901653 0.201314
0.000011 0.001868 -0.000359 -0.999911 0.003708 -0.012809 0.500001 0.499999
0.000306 0.126686 0.012742 -0.999911 0.003712 -0.012841 0.901653 0.201314
0.000467 0.127363 0.000445 -0.999911 0.003712 -0.012841 0.928979 0.242131
0.000011 0.001868 -0.000359 -0.999911 0.003712 -0.012841 0.500001 0.499999
0.000467 0.127363 0.000445 -0.999910 0.003712 -0.012870 0.928979 0.242131
0.000623 0.126840 -0.011849 -0.999910 0.003712 -0.012870 0.952179 0.285383
0.000011 0.001868 -0.000359 -0.999910 0.003712 -0.012870 0.500001 0.499999
0.000623 0.126840 -0.011849 -0.999911 0.003716 -0.012824 0.952179 0.285383
0.000773 0.125111 -0.024040 -0.999911 0.003716 -0.012824 0.971031 0.330732
0.000011 0.001868 -0.000359 -0.999911 0.003716 -0.012824 0.500001 0.499999
0.000773 0.125111 -0.024040 -0.999910 0.003711 -0.012850 0.971031 0.330732
0.000916 0.122197 -0.036003 -0.999910 0.003711 -0.012850 0.985357 0.377703
0.000011 0.001868 -0.000359 -0.999910 0.003711 -0.012850 0.500001 0.499999
0.000916 0.122197 -0.036003 -0.999911 0.003718 -0.012827 0.985357 0.377703
0.001050 0.118125 -0.047616 -0.999911 0.003718 -0.012827 0.994992 0.425831
0.000011 0.001868 -0.000359 -0.999911 0.003718 -0.012827 0.500001 0.499999
0.001050 0.118125 -0.047616 -0.999910 0.003699 -0.012872 0.994992 0.425831
0.001174 0.112937 -0.058784 -0.999910 0.003699 -0.012872 0.999898 0.474699
0.000011 0.001868 -0.000359 -0.999910 0.003699 -0.012872 0.500001 0.499999
0.001174 0.112937 -0.058784 -0.999911 0.003718 -0.012838 0.999898 0.474699
0.001287 0.106656 -0.069384 -0.999911 0.003718 -0.012838 0.999898 0.523844
0.000011 0.001868 -0.000359 -0.999911 0.003718 -0.012838 0.500001 0.499999
0.001287 0.106656 -0.069384 -0.999911 0.003710 -0.012850 0.999898 0.523844
0.001388 0.099401 -0.079338 -0.999911 0.003710 -0.012850 0.995241 0.572747
0.000011 0.001868 -0.000359 -0.999911 0.003710 -0.012850 0.500001 0.499999
0.001388 0.099401 -0.079338 -0.999911 0.003720 -0.012837 0.995241 0.572747
0.001475 0.091170 -0.088517 -0.999911 0.003720 -0.012837 0.985661 0.620974
0.000011 0.001868 -0.000359 -0.999911 0.003720 -0.012837 0.500001 0.499999
0.001475 0.091170 -0.088517 -0.999910 0.003689 -0.012868 0.985661 0.620974
0.001549 0.082106 -0.096844 -0.999910 0.003689 -0.012868 0.971490 0.667976
0.000011 0.001868 -0.000359 -0.999910 0.003689 -0.012868 0.500001 0.499999
0.001549 0.082106 -0.096844 -0.999911 0.003734 -0.012831 0.971490 0.667976
0.001608 0.072273 -0.104258 -0.999911 0.003734 -0.012831 0.952821 0.713405
0.000011 0.001868 -0.000359 -0.999911 0.003734 -0.012831 0.500001 0.499999
0.001608 0.072273 -0.104258 -0.999911 0.003719 -0.012841 0.952821 0.713405
0.001650 0.061742 -0.110642 -0.999911 0.003719 -0.012841 0.929666 0.756721
0.000011 0.001868 -0.000359 -0.999911 0.003719 -0.012841 0.500001 0.499999
0.001650 0.061742 -0.110642 -0.999910 0.003665 -0.012870 0.929666 0.756721
0.001678 0.050647 -0.115973 -0.999910 0.003665 -0.012870 0.902436 0.797567
0.000011 0.001868 -0.000359 -0.999910 0.003665 -0.012870 0.500001 0.499999
0.001678 0.050647 -0.115973 -0.999911 0.003757 -0.012831 0.902436 0.797567
0.001689 0.039072 -0.120215 -0.999911 0.003757 -0.012831 0.871342 0.835654
0.000011 0.001868 -0.000359 -0.999911 0.003757 -0.012831 0.500001 0.499999
0.001689 0.039072 -0.120215 -0.999911 0.003688 -0.012853 0.871342 0.835654
0.001684 0.027137 -0.123263 -0.999911 0.003688 -0.012853 0.836587 0.870374
0.000011 0.001868 -0.000359 -0.999911 0.003688 -0.012853 0.500001 0.499999
0.001684 0.027137 -0.123263 -0.999911 0.003700 -0.012850 0.836587 0.870374
0.001664 0.014962 -0.125167 -0.999911 0.003700 -0.012850 0.798684 0.901654
0.000011 0.001868 -0.000359 -0.999911 0.003700 -0.012850 0.500001 0.499999
0.001664 0.014962 -0.125167 -0.999910 0.003767 -0.012843 0.798684 0.901654
0.001626 0.002666 -0.125845 -0.999910 0.003767 -0.012843 0.757871 0.928977
0.000011 0.001868 -0.000359 -0.999910 0.003767 -0.012843 0.500001 0.499999
0.001626 0.002666 -0.125845 -0.999911 0.003715 -0.012844 0.757871 0.928977
0.001574 -0.009630 -0.125323 -0.999911 0.003715 -0.012844 0.714618 0.952181
0.000011 0.001868 -0.000359 -0.999911 0.003715 -0.012844 0.500001 0.499999
0.001574 -0.009630 -0.125323 -0.999911 0.003663 -0.012839 0.714618 0.952181
0.001507 -0.021821 -0.123594 -0.999911 0.003663 -0.012839 0.669271 0.971030
0.000011 0.001868 -0.000359 -0.999911 0.003663 -0.012839 0.500001 0.499999
0.001507 -0.021821 -0.123594 -0.999910 0.003743 -0.012854 0.669271 0.971030
0.001425 -0.033785 -0.120681 -0.999910 0.003743 -0.012854 0.622296 0.985357
0.000011 0.001868 -0.000359 -0.999910 0.003743 -0.012854 0.500001 0.499999
0.001425 -0.033785 -0.120681 -0.999911 0.003685 -0.012837 0.622296 0.985357
0.001330 -0.045399 -0.116610 -0.999911 0.003685 -0.012837 0.574168 0.994996
0.000011 0.001868 -0.000359 -0.999911 0.003685 -0.012837 0.500001 0.499999
0.001330 -0.045399 -0.116610 -0.999910 0.003766 -0.012870 0.574168 0.994996
0.001221 -0.056568 -0.111423 -0.999910 0.003766 -0.012870 0.525298 0.999900
0.000011 0.001868 -0.000359 -0.999910 0.003766 -0.012870 0.500001 0.499999
0.001221 -0.056568 -0.111423 -0.999911 0.003668 -0.012819 0.525298 0.999900
0.001101 -0.067169 -0.105143 -0.999911 0.003668 -0.012819 0.476154 0.999900
0.000011 0.001868 -0.000359 -0.999911 0.003668 -0.012819 0.500001 0.499999
0.001101 -0.067169 -0.105143 -0.999910 0.003720 -0.012853 0.476154 0.999900
0.000971 -0.077123 -0.097889 -0.999910 0.003720 -0.012853 0.427252 0.995245
0.000011 0.001868 -0.000359 -0.999910 0.003720 -0.012853 0.500001 0.499999
0.000971 -0.077123 -0.097889 -0.999911 0.003684 -0.012823 0.427252 0.995245
0.000832 -0.086301 -0.089659 -0.999911 0.003684 -0.012823 0.379028 0.985660
0.000011 0.001868 -0.000359 -0.999911 0.003684 -0.012823 0.500001 0.499999
0.000832 -0.086301 -0.089659 -0.999910 0.003721 -0.012860 0.379028 0.985660
0.000684 -0.094629 -0.080597 -0.999910 0.003721 -0.012860 0.332026 0.971491
0.000011 0.001868 -0.000359 -0.999910 0.003721 -0.012860 0.500001 0.499999
0.000684 -0.094629 -0.080597 -0.999911 0.003712 -0.012849 0.332026 0.971491
0.000530 -0.102043 -0.070763 -0.999911 0.003712 -0.012849 0.286596 0.952819
0.000011 0.001868 -0.000359 -0.999911 0.003712 -0.012849 0.500001 0.499999
0.000530 -0.102043 -0.070763 -0.999911 0.003702 -0.012834 0.286596 0.952819
0.000372 -0.108427 -0.060234 -0.999911 0.003702 -0.012834 0.243279 0.929667
0.000011 0.001868 -0.000359 -0.999911 0.003702 -0.012834 0.500001 0.499999
0.000372 -0.108427 -0.060234 -0.999910 0.003746 -0.012916 0.243279 0.929667
0.000208 -0.113759 -0.049140 -0.999910 0.003746 -0.012916 0.202430 0.902434
0.000011 0.001868 -0.000359 -0.999910 0.003746 -0.012916 0.500001 0.499999
0.000208 -0.113759 -0.049140 -0.999911 0.003693 -0.012790 0.202430 0.902434
0.000045 -0.118000 -0.037566 -0.999911 0.003693 -0.012790 0.164345 0.871341
0.000011 0.001868 -0.000359 -0.999911 0.003693 -0.012790 0.500001 0.499999
0.000045 -0.118000 -0.037566 -0.999910 0.003726 -0.012895 0.164345 0.871341
-0.000121 -0.121048 -0.025632 -0.999910 0.003726 -0.012895 0.129625 0.836585
0.000011 0.001868 -0.000359 -0.999910 0.003726 -0.012895 0.500001 0.499999
-0.000121 -0.121048 -0.025632 -0.999911 0.003710 -0.012819 0.129625 0.836585
-0.000284 -0.122951 -0.013459 -0.999911 0.003710 -0.012819 0.098345 0.798684
0.000011 0.001868 -0.000359 -0.999911 0.003710 -0.012819 0.500001 0.499999
-0.000284 -0.122951 -0.013459 -0.999911 0.003712 -0.012835 0.098345 0.798684
-0.000444 -0.123629 -0.001164 -0.999911 0.003712 -0.012835 0.071021 0.757871
-0.000444 -0.123629 -0.001164 -0.999910 0.003712 -0.012870 0.071021 0.757871
-0.000600 -0.123106 0.011131 -0.999910 0.003712 -0.012870 0.047820 0.714619
-0.000600 -0.123106 0.011131 -0.999911 0.003716 -0.012825 0.047820 0.714619
-0.000750 -0.121376 0.023322 -0.999911 0.003716 -0.012825 0.028969 0.669270
0.000011 0.001868 -0.000359 -0.999911 0.003716 -0.012825 0.500001 0.499999
3 0 1 2
3 3 4 5
3 6 7 8
3 9 10 11
3 12 13 14
3 15 16 17
3 18 19 20
3 21 22 23
3 24 25 26
3 27 28 29
3 30 31 32
3 33 34 35
3 36 37 38
3 39 40 41
3 42 43 44
3 45 46 47
3 48 49 50
3 51 52 53
3 54 55 56
3 57 58 59
3 60 61 62
3 63 64 65
3 66 67 68
3 69 70 71
3 72 73 74
3 75 76 77
3 78 79 80
3 81 82 83
3 84 85 86
3 87 88 89
3 90 91 92
3 93 94 95
3 96 97 98
3 99 100 101
3 102 103 104
3 105 106 107
3 108 109 110
3 111 112 113
3 114 115 116
3 117 118 119
3 120 121 122
3 123 124 125
3 126 127 128
3 129 130 131
3 132 133 134
3 135 136 137
3 138 139 140
3 141 142 143
3 144 145 146
3 147 148 149
3 150 151 152
3 153 154 155
3 156 157 158
3 159 160 161
3 162 163 164
3 165 166 167
3 168 169 170
3 171 172 173
3 174 175 176
3 177 178 179
3 180 181 182
3 183 184 74
3 185 186 92
3 187 188 189
